<svg id="Ebene_1" data-name="Ebene 1" xmlns="http://www.w3.org/2000/svg" viewBox="0 0 169.96 100.19"><defs><style>.cls-1{fill:#272118;}.cls-2{fill:none;stroke:#272118;stroke-width:4.07px;}</style></defs><path class="cls-1" d="M32.09,179.55c0-4.32-2-7.25-6.32-7.25H19.54v26.89H26.9c4.56,0,6.78-3.24,6.78-7.95,0-2.85-1-5.61-3.35-6.78,1.25-.86,1.76-3,1.76-4.91Zm-4.37.2c0,1.87-.5,3.35-2.33,3.35H24.1v-6.82h1.32c1.83,0,2.3,1.36,2.3,3.47Zm1.37,11.33c0,2.22-.55,4-2.54,4H24.1v-8.06h2.3c2,0,2.69,1.83,2.69,4Z" transform="translate(-19 -99)"/><polygon class="cls-1" points="22.92 95.98 22.92 88.15 28.38 88.15 28.38 83.94 22.92 83.94 22.92 77.51 28.77 77.51 28.77 73.3 18.33 73.3 18.33 100.19 29.2 100.19 29.2 95.98 22.92 95.98 22.92 95.98"/><path class="cls-1" d="M65.73,180.41c0-4.79-2.37-8.11-7-8.11H52.61v26.89H57.2V188.55H59l3.35,10.64h4.87l-4.13-12c1.76-1.41,2.61-3.82,2.61-6.78Zm-4.59,0c0,2.49-.59,3.93-2.57,3.93H57.2v-7.83h1.21c2,0,2.73,1.44,2.73,3.9Z" transform="translate(-19 -99)"/><polygon class="cls-1" points="56.1 95.98 56.1 73.3 51.5 73.3 51.5 100.19 62.13 100.19 62.13 95.98 56.1 95.98 56.1 95.98"/><polygon class="cls-1" points="65.58 73.3 65.58 100.19 70.17 100.19 70.17 73.3 65.58 73.3 65.58 73.3"/><path class="cls-1" d="M99.3,186.21l4.87,13H108V172.3h-4v12.39c0,1.83.47,5.69.55,6.28-.16-.63-1.13-4.25-1.64-5.69l-4.87-13H94.23v26.89h4V186.8c0-1.25-.55-5.89-.59-6.31.16.54,1.25,4.59,1.68,5.72Z" transform="translate(-19 -99)"/><polyline class="cls-1" points="5.18 59.37 5.18 36.69 0.58 36.69 0.58 63.57 11.22 63.57 11.22 59.37 5.18 59.37"/><path class="cls-1" d="M50.12,162.57l-6.27-26.88H38.71l-6.27,26.88h4l1.33-6h6.38l1.33,6Zm-6.89-10.2h-4.6l1.29-5.81c.43-2,1.13-6.74,1.13-6.74s.46,4.71.89,6.74l1.29,5.81Z" transform="translate(-19 -99)"/><path class="cls-1" d="M65.41,142.94c0-4.33-2-7.25-6.31-7.25H52.86v26.88h7.37c4.56,0,6.78-3.23,6.78-7.94,0-2.85-1.05-5.61-3.35-6.78,1.24-.86,1.75-3,1.75-4.91Zm-4.36.19c0,1.87-.51,3.35-2.34,3.35H57.42v-6.82h1.33c1.83,0,2.3,1.37,2.3,3.47Zm1.36,11.34c0,2.22-.54,4.05-2.53,4.05H57.42v-8.06h2.3c2,0,2.69,1.83,2.69,4Z" transform="translate(-19 -99)"/><path class="cls-1" d="M84.67,149.13c0-10.75-2.11-13.83-7.44-13.83s-7.45,3.08-7.45,13.83S71.93,163,77.23,163s7.44-3.07,7.44-13.83Zm-4.68,0c0,8.11-.39,9.59-2.76,9.59s-2.77-1.48-2.77-9.59.43-9.58,2.77-9.58S80,141,80,149.13Z" transform="translate(-19 -99)"/><path class="cls-1" d="M101.84,143.79c0-4.79-2.38-8.1-7-8.1H88.71v26.88h4.6V151.94h1.83l3.35,10.63h4.87l-4.13-12c1.75-1.4,2.61-3.81,2.61-6.78Zm-4.6,0c0,2.5-.58,3.94-2.57,3.94H93.31V139.9h1.21c2,0,2.72,1.44,2.72,3.89Z" transform="translate(-19 -99)"/><path class="cls-1" d="M123.1,162.57l-6.28-26.88h-5.14l-6.27,26.88h4l1.32-6h6.4l1.32,6Zm-6.9-10.2h-4.6l1.29-5.81c.43-2,1.13-6.74,1.13-6.74s.46,4.71.89,6.74l1.29,5.81Z" transform="translate(-19 -99)"/><polygon class="cls-1" points="113.25 40.9 118 40.9 118 36.69 103.93 36.69 103.93 40.9 108.65 40.9 108.65 63.57 113.25 63.57 113.25 40.9 113.25 40.9"/><path class="cls-1" d="M154,149.13c0-10.75-2.1-13.83-7.44-13.83s-7.44,3.08-7.44,13.83S141.25,163,146.55,163s7.44-3.07,7.44-13.83Zm-4.67,0c0,8.11-.39,9.59-2.77,9.59s-2.77-1.48-2.77-9.59.43-9.58,2.77-9.58,2.77,1.48,2.77,9.58Z" transform="translate(-19 -99)"/><path class="cls-1" d="M171.2,143.79c0-4.79-2.37-8.1-7-8.1h-6.12v26.88h4.6V151.94h1.83l3.35,10.63h4.87l-4.13-12c1.76-1.4,2.61-3.81,2.61-6.78Zm-4.59,0c0,2.5-.59,3.94-2.57,3.94h-1.37V139.9h1.21c2,0,2.73,1.44,2.73,3.89Z" transform="translate(-19 -99)"/><polygon class="cls-1" points="164.23 53.21 169.96 36.69 165.95 36.69 162.25 47.68 158.7 36.69 153.91 36.69 159.63 53.21 159.63 63.57 164.23 63.57 164.23 53.21 164.23 53.21"/><path class="cls-1" d="M36.69,125.88,30.42,99H25.27L19,125.88h4l1.33-6h6.39l1.32,6Zm-6.9-10.2H25.2l1.28-5.81c.43-2,1.13-6.74,1.13-6.74s.47,4.71.9,6.74l1.28,5.81Z" transform="translate(-19 -99)"/><path class="cls-1" d="M53,107.1c0-4.79-2.38-8.1-7-8.1H39.86v26.88h4.59V115.25h1.84l3.35,10.63h4.87l-4.13-12c1.75-1.4,2.61-3.81,2.61-6.78Zm-4.6,0c0,2.5-.59,3.94-2.57,3.94H44.45v-7.83h1.21c2,0,2.73,1.44,2.73,3.89Z" transform="translate(-19 -99)"/><polygon class="cls-1" points="45.64 4.21 50.39 4.21 50.39 0 36.33 0 36.33 4.21 41.04 4.21 41.04 26.88 45.64 26.88 45.64 4.21 45.64 4.21"/><line class="cls-2" x1="95.16" y1="75.38" x2="164.44" y2="75.38"/></svg>